<svg data-v-423bf9ae="" xmlns="http://www.w3.org/2000/svg" viewBox="0 0 196.94716718271667 60" class="font"><!----><!----><!----><g data-v-423bf9ae="" id="015377ad-b6e4-4ef0-8a7b-b4945fe27185" fill="white" transform="matrix(5.63811010912192,0,0,5.63811010912192,-3.7695478141297514,-0.356778952044408)"><path d="M6.37 0.71L6.37 0.71C5.39 0.38 4.70 0.27 3.86 0.31C0.98 0.45-0.25 3.99 1.78 5.77C3.08 6.90 4.47 6.79 4.52 7.45C4.61 8.15 2.72 8.01 1.64 7.22C1.15 6.87 0.60 7.63 1.09 7.98C2.02 8.65 3.15 8.88 4.06 8.82C4.82 8.76 5.50 8.19 5.46 7.41C5.36 5.92 3.63 6.16 2.41 5.07C1.40 4.20 1.60 2.73 2.35 1.93C3.28 0.91 4.79 1.15 6.05 1.60C6.64 1.81 6.94 0.91 6.37 0.71ZM0.91 9.97L0.91 9.97C1.46 10.26 2.00 10.44 2.48 10.54C5.10 11.17 7.36 9.97 7.36 7.41C7.36 4.80 4.30 4.24 3.78 3.85C3.32 3.49 3.68 2.62 5.80 3.47C6.37 3.71 6.71 2.84 6.16 2.62C2.67 1.20 2.09 3.68 3.21 4.56C3.92 5.14 6.44 5.49 6.44 7.41C6.44 10.00 3.51 10.29 1.36 9.14C0.81 8.86 0.38 9.69 0.91 9.97ZM3.98 7.90L3.98 7.90L3.98 7.90L3.98 7.90ZM11.75 7.84L11.75 7.84L13.10 7.84C13.37 7.84 13.59 7.63 13.59 7.36C13.59 7.29 13.58 7.24 13.55 7.18L12.87 5.50C12.77 5.28 12.50 5.17 12.25 5.26C12.03 5.35 11.91 5.63 12.00 5.87L12.42 6.90L11.75 6.90C11.49 6.90 11.28 7.10 11.28 7.36C11.28 7.63 11.49 7.84 11.75 7.84ZM11.06 10.26L11.06 10.26L11.30 9.72L13.57 9.72L13.79 10.26C13.89 10.51 14.17 10.61 14.41 10.53C14.64 10.42 14.74 10.15 14.66 9.91L14.32 9.10C14.27 8.92 14.08 8.76 13.87 8.76L10.98 8.76L10.98 8.76C10.81 8.76 10.63 8.89 10.54 9.06L10.21 9.91C10.11 10.15 10.22 10.42 10.46 10.53C10.71 10.61 10.98 10.50 11.06 10.26ZM9.06 10.26L9.06 10.26L12.43 1.76L15.81 10.26C15.90 10.50 16.18 10.61 16.42 10.53C16.66 10.42 16.77 10.15 16.67 9.91L12.87 0.36C12.82 0.25 12.74 0.14 12.60 0.10C12.38 0 12.10 0.11 12.00 0.36L8.18 9.91C8.09 10.15 8.22 10.42 8.44 10.53C8.68 10.61 8.95 10.50 9.06 10.26ZM20.82 7.84L20.82 7.84L22.18 7.84C22.44 7.84 22.67 7.63 22.67 7.36C22.67 7.29 22.65 7.24 22.62 7.18L21.94 5.50C21.84 5.28 21.57 5.17 21.32 5.26C21.10 5.35 20.99 5.63 21.07 5.87L21.49 6.90L20.82 6.90C20.57 6.90 20.36 7.10 20.36 7.36C20.36 7.63 20.57 7.84 20.82 7.84ZM20.13 10.26L20.13 10.26L20.37 9.72L22.64 9.72L22.86 10.26C22.96 10.51 23.24 10.61 23.48 10.53C23.72 10.42 23.81 10.15 23.73 9.91L23.39 9.10C23.34 8.92 23.16 8.76 22.95 8.76L20.05 8.76L20.05 8.76C19.88 8.76 19.70 8.89 19.61 9.06L19.28 9.91C19.18 10.15 19.29 10.42 19.53 10.53C19.78 10.61 20.05 10.50 20.13 10.26ZM18.13 10.26L18.13 10.26L21.50 1.76L24.88 10.26C24.98 10.50 25.26 10.61 25.49 10.53C25.73 10.42 25.84 10.15 25.75 9.91L21.94 0.36C21.90 0.25 21.81 0.14 21.67 0.10C21.45 0 21.17 0.11 21.07 0.36L17.25 9.91C17.16 10.15 17.29 10.42 17.51 10.53C17.75 10.61 18.02 10.50 18.13 10.26ZM30.45 8.78L30.45 8.78C32.37 8.78 33.64 7.34 33.64 5.49C33.64 3.65 32.37 2.21 30.45 2.21L29.53 2.21C29.27 2.21 29.06 2.42 29.06 2.69L29.06 6.43C29.06 6.69 29.27 6.90 29.53 6.90C29.79 6.90 29.99 6.69 29.99 6.43L29.99 3.15L30.45 3.15C31.84 3.15 32.72 4.17 32.72 5.49C32.72 6.82 31.84 7.84 30.45 7.84L29.53 7.84C29.27 7.84 29.06 8.05 29.06 8.30C29.06 8.57 29.27 8.78 29.53 8.78ZM28.13 10.18L28.13 10.18L28.13 1.29L30.45 1.29C32.96 1.29 34.66 3.05 34.66 5.49C34.66 7.94 32.96 9.70 30.45 9.70L29.51 9.70C29.26 9.70 29.05 9.91 29.05 10.18C29.05 10.43 29.26 10.64 29.51 10.64L30.45 10.64C33.49 10.64 35.60 8.46 35.60 5.49C35.60 2.53 33.49 0.35 30.45 0.35L27.65 0.35C27.40 0.35 27.19 0.56 27.19 0.81L27.19 10.18C27.19 10.43 27.40 10.64 27.65 10.64C27.92 10.64 28.13 10.43 28.13 10.18Z"></path></g><!----><!----></svg>